<mxfile host="app.diagrams.net" agent="Mozilla/5.0 (Macintosh; Intel Mac OS X 10_15_7) AppleWebKit/537.36 (KHTML, like Gecko) Chrome/127.0.0.0 Safari/537.36" version="24.7.7">
  <diagram name="Page-1" id="0H7BDTGXCOX399B8Jhps">
    <mxGraphModel dx="2211" dy="2042" grid="1" gridSize="10" guides="1" tooltips="1" connect="1" arrows="1" fold="1" page="0" pageScale="1" pageWidth="827" pageHeight="1169" math="0" shadow="0">
      <root>
        <mxCell id="0" />
        <mxCell id="1" parent="0" />
        <mxCell id="HKQWtJ8eIjX7dsLf_Ri8-2" value="User" style="shape=umlActor;verticalLabelPosition=bottom;verticalAlign=top;html=1;outlineConnect=0;fontSize=11;" vertex="1" parent="1">
          <mxGeometry x="-680" y="-1040" width="30" height="60" as="geometry" />
        </mxCell>
        <mxCell id="HKQWtJ8eIjX7dsLf_Ri8-3" value="ProductInputHandler" style="rounded=1;whiteSpace=wrap;html=1;fontSize=11;spacingLeft=18;" vertex="1" parent="1">
          <mxGeometry x="-570" y="-1030" width="140" height="40" as="geometry" />
        </mxCell>
        <mxCell id="HKQWtJ8eIjX7dsLf_Ri8-4" value="OrderController" style="rounded=1;whiteSpace=wrap;html=1;fontSize=11;" vertex="1" parent="1">
          <mxGeometry x="-290" y="-1030" width="140" height="40" as="geometry" />
        </mxCell>
        <mxCell id="HKQWtJ8eIjX7dsLf_Ri8-5" value="" style="endArrow=classic;html=1;rounded=0;entryX=0;entryY=0.5;entryDx=0;entryDy=0;fontSize=11;" edge="1" parent="1" target="HKQWtJ8eIjX7dsLf_Ri8-18">
          <mxGeometry width="50" height="50" relative="1" as="geometry">
            <mxPoint x="-650" y="-1010" as="sourcePoint" />
            <mxPoint x="-747.5" y="-1010" as="targetPoint" />
          </mxGeometry>
        </mxCell>
        <mxCell id="HKQWtJ8eIjX7dsLf_Ri8-6" value="CLI input" style="edgeLabel;html=1;align=center;verticalAlign=middle;resizable=0;points=[];fontSize=11;" vertex="1" connectable="0" parent="HKQWtJ8eIjX7dsLf_Ri8-5">
          <mxGeometry x="-0.1571" relative="1" as="geometry">
            <mxPoint y="-10" as="offset" />
          </mxGeometry>
        </mxCell>
        <mxCell id="HKQWtJ8eIjX7dsLf_Ri8-7" value="" style="endArrow=classic;html=1;rounded=0;exitX=1;exitY=0.5;exitDx=0;exitDy=0;fontSize=11;entryX=0;entryY=0.5;entryDx=0;entryDy=0;" edge="1" parent="1" source="HKQWtJ8eIjX7dsLf_Ri8-3" target="HKQWtJ8eIjX7dsLf_Ri8-17">
          <mxGeometry width="50" height="50" relative="1" as="geometry">
            <mxPoint x="-427.5" y="-980" as="sourcePoint" />
            <mxPoint x="-360" y="-1030" as="targetPoint" />
            <Array as="points" />
          </mxGeometry>
        </mxCell>
        <mxCell id="HKQWtJ8eIjX7dsLf_Ri8-8" value="products" style="edgeLabel;html=1;align=center;verticalAlign=middle;resizable=0;points=[];fontSize=11;" vertex="1" connectable="0" parent="HKQWtJ8eIjX7dsLf_Ri8-7">
          <mxGeometry x="-0.1257" relative="1" as="geometry">
            <mxPoint x="-22" y="-10" as="offset" />
          </mxGeometry>
        </mxCell>
        <mxCell id="HKQWtJ8eIjX7dsLf_Ri8-9" value="ReceiptPresenter" style="rounded=1;whiteSpace=wrap;html=1;fontSize=11;" vertex="1" parent="1">
          <mxGeometry x="-10" y="-1030" width="140" height="40" as="geometry" />
        </mxCell>
        <mxCell id="HKQWtJ8eIjX7dsLf_Ri8-10" value="" style="endArrow=classic;html=1;rounded=0;exitX=1;exitY=0.5;exitDx=0;exitDy=0;entryX=0;entryY=0.5;entryDx=0;entryDy=0;fontSize=11;" edge="1" parent="1" source="HKQWtJ8eIjX7dsLf_Ri8-4" target="HKQWtJ8eIjX7dsLf_Ri8-33">
          <mxGeometry width="50" height="50" relative="1" as="geometry">
            <mxPoint x="20" y="-1060" as="sourcePoint" />
            <mxPoint x="80" y="-1160" as="targetPoint" />
          </mxGeometry>
        </mxCell>
        <mxCell id="HKQWtJ8eIjX7dsLf_Ri8-11" value="make receipt" style="edgeLabel;html=1;align=center;verticalAlign=middle;resizable=0;points=[];fontSize=11;" vertex="1" connectable="0" parent="HKQWtJ8eIjX7dsLf_Ri8-10">
          <mxGeometry x="-0.5637" y="1" relative="1" as="geometry">
            <mxPoint x="23" y="-9" as="offset" />
          </mxGeometry>
        </mxCell>
        <mxCell id="HKQWtJ8eIjX7dsLf_Ri8-12" value="" style="endArrow=classic;html=1;rounded=0;exitX=1;exitY=0.5;exitDx=0;exitDy=0;fontSize=11;" edge="1" parent="1">
          <mxGeometry width="50" height="50" relative="1" as="geometry">
            <mxPoint x="130" y="-1010.34" as="sourcePoint" />
            <mxPoint x="210" y="-1010" as="targetPoint" />
          </mxGeometry>
        </mxCell>
        <mxCell id="HKQWtJ8eIjX7dsLf_Ri8-13" value="CLI output" style="edgeLabel;html=1;align=center;verticalAlign=middle;resizable=0;points=[];fontSize=11;" vertex="1" connectable="0" parent="HKQWtJ8eIjX7dsLf_Ri8-12">
          <mxGeometry x="-0.2335" relative="1" as="geometry">
            <mxPoint x="10" y="-10" as="offset" />
          </mxGeometry>
        </mxCell>
        <mxCell id="HKQWtJ8eIjX7dsLf_Ri8-14" value="" style="shape=image;html=1;verticalAlign=top;verticalLabelPosition=bottom;labelBackgroundColor=#ffffff;imageAspect=0;aspect=fixed;image=https://cdn1.iconfinder.com/data/icons/ionicons-outline-vol-2/512/receipt-outline-128.png;fontSize=11;" vertex="1" parent="1">
          <mxGeometry x="204" y="-1025" width="40" height="40" as="geometry" />
        </mxCell>
        <mxCell id="HKQWtJ8eIjX7dsLf_Ri8-15" value="OrderStorage" style="rounded=1;whiteSpace=wrap;html=1;fontSize=11;" vertex="1" parent="1">
          <mxGeometry x="-200" y="-960" width="140" height="40" as="geometry" />
        </mxCell>
        <mxCell id="HKQWtJ8eIjX7dsLf_Ri8-16" value="" style="rounded=0;whiteSpace=wrap;html=1;fillColor=none;dashed=1;fontSize=11;" vertex="1" parent="1">
          <mxGeometry x="-213" y="-970" width="343" height="200" as="geometry" />
        </mxCell>
        <mxCell id="HKQWtJ8eIjX7dsLf_Ri8-17" value="2" style="ellipse;whiteSpace=wrap;html=1;aspect=fixed;fillColor=#add1b2;strokeColor=default;fontColor=default;labelBorderColor=none;fontStyle=1;fontSize=11;" vertex="1" parent="1">
          <mxGeometry x="-290" y="-1020" width="20" height="20" as="geometry" />
        </mxCell>
        <mxCell id="HKQWtJ8eIjX7dsLf_Ri8-18" value="1" style="ellipse;whiteSpace=wrap;html=1;aspect=fixed;fillColor=#add1b2;strokeColor=default;fontColor=default;labelBorderColor=none;fontStyle=1;fontSize=11;" vertex="1" parent="1">
          <mxGeometry x="-570" y="-1020" width="20" height="20" as="geometry" />
        </mxCell>
        <mxCell id="HKQWtJ8eIjX7dsLf_Ri8-19" value="3" style="ellipse;whiteSpace=wrap;html=1;aspect=fixed;fillColor=#add1b2;strokeColor=default;fontColor=default;labelBorderColor=none;fontStyle=1;fontSize=11;" vertex="1" parent="1">
          <mxGeometry x="-200" y="-950" width="20" height="20" as="geometry" />
        </mxCell>
        <mxCell id="HKQWtJ8eIjX7dsLf_Ri8-20" value="OrderService" style="rounded=1;whiteSpace=wrap;html=1;fontSize=11;" vertex="1" parent="1">
          <mxGeometry x="-200" y="-890" width="140" height="40" as="geometry" />
        </mxCell>
        <mxCell id="HKQWtJ8eIjX7dsLf_Ri8-21" value="PaymentService" style="rounded=1;whiteSpace=wrap;html=1;fontSize=11;" vertex="1" parent="1">
          <mxGeometry x="-200" y="-820" width="140" height="40" as="geometry" />
        </mxCell>
        <mxCell id="HKQWtJ8eIjX7dsLf_Ri8-22" value="" style="endArrow=classic;html=1;rounded=0;exitX=0.25;exitY=1;exitDx=0;exitDy=0;fontSize=11;entryX=0;entryY=0.5;entryDx=0;entryDy=0;curved=1;" edge="1" parent="1" source="HKQWtJ8eIjX7dsLf_Ri8-4" target="HKQWtJ8eIjX7dsLf_Ri8-19">
          <mxGeometry width="50" height="50" relative="1" as="geometry">
            <mxPoint x="-290" y="-1060" as="sourcePoint" />
            <mxPoint x="-290" y="-920" as="targetPoint" />
            <Array as="points">
              <mxPoint x="-250" y="-940" />
            </Array>
          </mxGeometry>
        </mxCell>
        <mxCell id="HKQWtJ8eIjX7dsLf_Ri8-23" value="" style="endArrow=classic;html=1;rounded=0;exitX=0.25;exitY=1;exitDx=0;exitDy=0;fontSize=11;entryX=0;entryY=0.5;entryDx=0;entryDy=0;curved=1;" edge="1" parent="1" source="HKQWtJ8eIjX7dsLf_Ri8-4" target="HKQWtJ8eIjX7dsLf_Ri8-32">
          <mxGeometry width="50" height="50" relative="1" as="geometry">
            <mxPoint x="-310" y="-1050" as="sourcePoint" />
            <mxPoint x="-270" y="-860" as="targetPoint" />
            <Array as="points">
              <mxPoint x="-250" y="-870" />
            </Array>
          </mxGeometry>
        </mxCell>
        <mxCell id="HKQWtJ8eIjX7dsLf_Ri8-24" value="&lt;span style=&quot;font-size: 11px; text-wrap: nowrap;&quot;&gt;order with new products and&lt;/span&gt;&lt;div style=&quot;font-size: 11px; text-wrap: nowrap;&quot;&gt;(optionally) previously paid beverages&lt;/div&gt;" style="shape=note;strokeWidth=1;fontSize=14;size=12;whiteSpace=wrap;html=1;fillColor=#feffdd;strokeColor=default;fontColor=default;align=left;spacingLeft=5;" vertex="1" parent="1">
          <mxGeometry x="-490" y="-930" width="200" height="35" as="geometry" />
        </mxCell>
        <mxCell id="HKQWtJ8eIjX7dsLf_Ri8-25" value="&lt;span style=&quot;font-size: 11px; text-wrap: nowrap;&quot;&gt;Retrieve previously&lt;/span&gt;&lt;div style=&quot;font-size: 11px; text-wrap: nowrap;&quot;&gt;paid beverages (orders)&lt;/div&gt;" style="shape=note;strokeWidth=1;fontSize=14;size=12;whiteSpace=wrap;html=1;fillColor=#feffdd;strokeColor=default;fontColor=default;align=left;spacingLeft=5;" vertex="1" parent="1">
          <mxGeometry x="-430" y="-985" width="140" height="35" as="geometry" />
        </mxCell>
        <mxCell id="HKQWtJ8eIjX7dsLf_Ri8-26" value="&lt;span style=&quot;font-size: 11px; text-wrap: nowrap;&quot;&gt;apply&amp;nbsp;promotions&amp;nbsp;&lt;/span&gt;&lt;span style=&quot;font-size: 11px; text-wrap: nowrap; background-color: initial;&quot;&gt;(bonus)&lt;/span&gt;" style="shape=note;strokeWidth=1;fontSize=14;size=12;whiteSpace=wrap;html=1;fillColor=#feffdd;strokeColor=default;fontColor=default;align=left;spacingLeft=5;" vertex="1" parent="1">
          <mxGeometry x="-20" y="-940" width="140" height="35" as="geometry" />
        </mxCell>
        <mxCell id="HKQWtJ8eIjX7dsLf_Ri8-27" value="6" style="ellipse;whiteSpace=wrap;html=1;aspect=fixed;fillColor=#add1b2;strokeColor=default;fontColor=default;labelBorderColor=none;fontStyle=1;fontSize=11;" vertex="1" parent="1">
          <mxGeometry x="-200" y="-810" width="20" height="20" as="geometry" />
        </mxCell>
        <mxCell id="HKQWtJ8eIjX7dsLf_Ri8-28" value="" style="endArrow=classic;html=1;rounded=0;exitX=0.25;exitY=1;exitDx=0;exitDy=0;entryX=0;entryY=0.5;entryDx=0;entryDy=0;curved=1;" edge="1" parent="1" source="HKQWtJ8eIjX7dsLf_Ri8-4" target="HKQWtJ8eIjX7dsLf_Ri8-27">
          <mxGeometry width="50" height="50" relative="1" as="geometry">
            <mxPoint x="-320" y="-790" as="sourcePoint" />
            <mxPoint x="-270" y="-840" as="targetPoint" />
            <Array as="points">
              <mxPoint x="-255" y="-800" />
            </Array>
          </mxGeometry>
        </mxCell>
        <mxCell id="HKQWtJ8eIjX7dsLf_Ri8-29" value="BonusService" style="rounded=1;whiteSpace=wrap;html=1;fontSize=11;" vertex="1" parent="1">
          <mxGeometry x="-20" y="-890" width="140" height="40" as="geometry" />
        </mxCell>
        <mxCell id="HKQWtJ8eIjX7dsLf_Ri8-30" value="" style="endArrow=classic;html=1;rounded=0;exitX=1;exitY=0.5;exitDx=0;exitDy=0;entryX=0;entryY=0.5;entryDx=0;entryDy=0;" edge="1" parent="1" source="HKQWtJ8eIjX7dsLf_Ri8-20" target="HKQWtJ8eIjX7dsLf_Ri8-31">
          <mxGeometry width="50" height="50" relative="1" as="geometry">
            <mxPoint x="-70" y="-890" as="sourcePoint" />
            <mxPoint x="-50" y="-860" as="targetPoint" />
          </mxGeometry>
        </mxCell>
        <mxCell id="HKQWtJ8eIjX7dsLf_Ri8-31" value="5" style="ellipse;whiteSpace=wrap;html=1;aspect=fixed;fillColor=#add1b2;strokeColor=default;fontColor=default;labelBorderColor=none;fontStyle=1;fontSize=11;" vertex="1" parent="1">
          <mxGeometry x="-20" y="-880" width="20" height="20" as="geometry" />
        </mxCell>
        <mxCell id="HKQWtJ8eIjX7dsLf_Ri8-32" value="4" style="ellipse;whiteSpace=wrap;html=1;aspect=fixed;fillColor=#add1b2;strokeColor=default;fontColor=default;labelBorderColor=none;fontStyle=1;fontSize=11;" vertex="1" parent="1">
          <mxGeometry x="-200" y="-880" width="20" height="20" as="geometry" />
        </mxCell>
        <mxCell id="HKQWtJ8eIjX7dsLf_Ri8-33" value="7" style="ellipse;whiteSpace=wrap;html=1;aspect=fixed;fillColor=#add1b2;strokeColor=default;fontColor=default;labelBorderColor=none;fontStyle=1;fontSize=11;" vertex="1" parent="1">
          <mxGeometry x="-10" y="-1020" width="20" height="20" as="geometry" />
        </mxCell>
        <mxCell id="HKQWtJ8eIjX7dsLf_Ri8-34" value="" style="endArrow=none;dashed=1;html=1;dashPattern=1 3;strokeWidth=1;rounded=0;entryX=0;entryY=0;entryDx=140;entryDy=23.5;entryPerimeter=0;startArrow=oval;startFill=1;" edge="1" parent="1" target="HKQWtJ8eIjX7dsLf_Ri8-25">
          <mxGeometry width="50" height="50" relative="1" as="geometry">
            <mxPoint x="-220" y="-941" as="sourcePoint" />
            <mxPoint x="-290" y="-962.5" as="targetPoint" />
          </mxGeometry>
        </mxCell>
        <mxCell id="HKQWtJ8eIjX7dsLf_Ri8-35" value="" style="endArrow=none;dashed=1;html=1;dashPattern=1 3;strokeWidth=1;rounded=0;entryX=0;entryY=0;entryDx=200;entryDy=23.5;entryPerimeter=0;startArrow=oval;startFill=1;" edge="1" parent="1" target="HKQWtJ8eIjX7dsLf_Ri8-24">
          <mxGeometry width="50" height="50" relative="1" as="geometry">
            <mxPoint x="-235" y="-890" as="sourcePoint" />
            <mxPoint x="-295" y="-906.5" as="targetPoint" />
          </mxGeometry>
        </mxCell>
        <mxCell id="HKQWtJ8eIjX7dsLf_Ri8-36" value="" style="endArrow=none;dashed=1;html=1;dashPattern=1 3;strokeWidth=1;rounded=0;entryX=0.004;entryY=0.688;entryDx=0;entryDy=0;entryPerimeter=0;startArrow=oval;startFill=1;curved=1;" edge="1" parent="1" target="HKQWtJ8eIjX7dsLf_Ri8-26">
          <mxGeometry width="50" height="50" relative="1" as="geometry">
            <mxPoint x="-40" y="-870" as="sourcePoint" />
            <mxPoint x="-280" y="-896" as="targetPoint" />
            <Array as="points">
              <mxPoint x="-40" y="-900" />
            </Array>
          </mxGeometry>
        </mxCell>
      </root>
    </mxGraphModel>
  </diagram>
</mxfile>
